HIERARCHY
ROOT Hips
{
	OFFSET -0.001795 -0.223333 0.028219
	CHANNELS 6 Xposition Yposition Zposition Zrotation Yrotation Xrotation 
	JOINT LeftUpLeg
	{
		OFFSET 0.069520 -0.091406 -0.006815
		CHANNELS 3 Zrotation Yrotation Xrotation
		JOINT LeftLeg
		{
			OFFSET 0.034277 -0.375199 -0.004496
			CHANNELS 3 Zrotation Yrotation Xrotation
			JOINT LeftFoot
			{
				OFFSET -0.013596 -0.397961 -0.043693
				CHANNELS 3 Zrotation Yrotation Xrotation
				JOINT LeftToe
				{
					OFFSET 0.026358 -0.055791 0.119288
					CHANNELS 3 Zrotation Yrotation Xrotation
					End Site
					{
						OFFSET 0.000000 0.000000 0.000000
					}
				}
			}
		}
	}
	JOINT RightUpLeg
	{
		OFFSET -0.067670 -0.090522 -0.004320
		CHANNELS 3 Zrotation Yrotation Xrotation
		JOINT RightLeg
		{
			OFFSET -0.038290 -0.382569 -0.008850
			CHANNELS 3 Zrotation Yrotation Xrotation
			JOINT RightFoot
			{
				OFFSET 0.015774 -0.398415 -0.042312
				CHANNELS 3 Zrotation Yrotation Xrotation
				JOINT RightToe
				{
					OFFSET -0.025372 -0.048144 0.123348
					CHANNELS 3 Zrotation Yrotation Xrotation
					End Site
					{
						OFFSET 0.000000 0.000000 0.000000
					}
				}
			}
		}
	}
	JOINT Spine
	{
		OFFSET -0.002533 0.108963 -0.026696
		CHANNELS 3 Zrotation Yrotation Xrotation
		JOINT Spine1
		{
			OFFSET 0.005487 0.135180 0.001092
			CHANNELS 3 Zrotation Yrotation Xrotation
			JOINT Spine2
			{
				OFFSET 0.001457 0.052922 0.025425
				CHANNELS 3 Zrotation Yrotation Xrotation
				JOINT Neck
				{
					OFFSET -0.002778 0.213870 -0.042857
					CHANNELS 3 Zrotation Yrotation Xrotation
					JOINT Head
					{
						OFFSET 0.005152 0.064970 0.051349
						CHANNELS 3 Zrotation Yrotation Xrotation
						End Site
						{
							OFFSET 0.000000 0.000000 0.000000
						}
					}
				}
				JOINT LeftShoulder
				{
					OFFSET 0.078845 0.121749 -0.034090
					CHANNELS 3 Zrotation Yrotation Xrotation
					JOINT LeftArm
					{
						OFFSET 0.090977 0.030469 -0.008868
						CHANNELS 3 Zrotation Yrotation Xrotation
						JOINT LeftForeArm
						{
							OFFSET 0.259612 -0.012772 -0.027456
							CHANNELS 3 Zrotation Yrotation Xrotation
							JOINT LeftHand
							{
								OFFSET 0.249234 0.008986 -0.001171
								CHANNELS 3 Zrotation Yrotation Xrotation
								End Site
								{
									OFFSET 0.000000 0.000000 0.000000
								}
							}
						}
					}
				}
				JOINT RightShoulder
				{
					OFFSET -0.081759 0.118833 -0.038615
					CHANNELS 3 Zrotation Yrotation Xrotation
					JOINT RightArm
					{
						OFFSET -0.096012 0.032551 -0.009143
						CHANNELS 3 Zrotation Yrotation Xrotation
						JOINT RightForeArm
						{
							OFFSET -0.253742 -0.013329 -0.021401
							CHANNELS 3 Zrotation Yrotation Xrotation
							JOINT RightHand
							{
								OFFSET -0.255298 0.007772 -0.005559
								CHANNELS 3 Zrotation Yrotation Xrotation
								End Site
								{
									OFFSET 0.000000 0.000000 0.000000
								}
							}
						}
					}
				}
			}
		}
	}
}
MOTION
Frames: 13
Frame Time: 0.050000
0.000000 0.945016 0.000000 -1.301790 -1.785606 3.690984 2.852986 0.033145 1.233490 -0.030670 0.143978 -4.161513 1.916470 6.328822 7.254500 0.000000 0.000000 0.000000 -1.960214 0.197847 -1.568323 1.421337 -0.210994 -2.506191 -0.352984 -4.176198 7.200890 0.000000 0.000000 0.000000 5.853325 -0.102661 -0.128321 -5.258743 1.827589 -24.129919 -0.752310 5.812982 28.639329 9.585346 -3.476296 -24.651948 0.000000 0.000000 0.000000 -8.772574 -1.849170 -0.115909 -51.913005 0.217217 -8.628123 -9.723957 -33.707728 4.361028 0.000000 0.000000 0.000000 15.574843 -8.576332 -4.393947 58.583466 -0.976232 -8.529098 11.873141 32.874141 5.556664 0.000000 0.000000 0.000000 
0.000198 0.944183 0.000194 -1.396249 -2.438384 4.146651 3.035352 0.057737 1.660652 -0.496834 0.214059 -5.270351 2.615183 7.378962 6.606524 0.000000 0.000000 0.000000 -2.215677 0.238749 -1.953932 1.795504 -0.240409 -2.638584 -0.278972 -4.313306 7.791961 0.000000 0.000000 0.000000 6.012357 -0.105538 -0.202763 -5.908373 1.954642 -24.722758 -0.631857 6.000200 28.518224 10.462757 -4.006421 -24.824001 0.000000 0.000000 0.000000 -8.107478 -1.602541 -0.130180 -52.671317 -0.103385 -8.621283 -8.610769 -33.581926 4.054614 0.000000 0.000000 0.000000 15.343726 -8.857014 -4.576516 59.528057 -2.504656 -9.332145 12.233304 34.101874 5.907351 0.000000 0.000000 0.000000 
0.000266 0.944030 0.000145 -1.021514 -2.017381 4.186296 2.954049 0.040050 1.403323 -0.901666 0.218793 -4.485257 2.401549 6.999570 6.539511 0.000000 0.000000 0.000000 -2.497478 0.243894 -1.959524 1.683101 -0.234231 -2.676494 -0.184426 -3.990430 7.580979 0.000000 0.000000 0.000000 5.956972 -0.059772 -0.699477 -6.042036 1.980676 -25.220191 -0.902340 5.511375 29.269936 10.004655 -3.636515 -25.701217 0.000000 0.000000 0.000000 -8.030352 -2.271320 0.201049 -52.840665 -0.004854 -8.755444 -8.541335 -33.622846 4.076815 0.000000 0.000000 0.000000 15.216702 -8.880138 -4.598258 59.607941 -2.116512 -9.235957 12.125482 32.917826 5.628456 0.000000 0.000000 0.000000 
0.000260 0.943900 0.000123 -1.101759 -2.140990 4.179275 3.025244 0.037621 1.383396 -0.866848 0.213252 -4.367794 2.472449 7.144183 6.631167 0.000000 0.000000 0.000000 -2.524369 0.240957 -1.910032 2.204082 -0.279016 -2.972350 -0.471444 -4.743959 7.945651 0.000000 0.000000 0.000000 5.956241 -0.049084 -0.799949 -6.204376 2.004674 -25.627924 -0.847794 5.534597 29.703517 10.070399 -3.830736 -24.916199 0.000000 0.000000 0.000000 -7.665546 -2.186240 0.203447 -53.378286 0.029080 -8.887627 -8.259749 -34.004355 4.062456 0.000000 0.000000 0.000000 15.057484 -8.945746 -4.615525 59.834103 -2.108268 -9.291218 12.320933 32.591391 5.628224 0.000000 0.000000 0.000000 
0.000141 0.944204 0.000097 -1.090311 -2.046420 4.027850 2.944048 0.045589 1.461347 -0.802070 0.205854 -4.279717 2.492706 7.224841 6.777082 0.000000 0.000000 0.000000 -2.466698 0.231857 -1.823384 2.092626 -0.269169 -2.865626 -0.825256 -5.358787 7.640607 0.000000 0.000000 0.000000 5.754039 -0.047902 -0.761564 -5.586839 1.883049 -25.022768 -1.240238 5.565641 28.858526 9.947120 -3.869199 -24.007935 0.000000 0.000000 0.000000 -7.425610 -2.385029 0.280724 -53.753328 0.120772 -8.918424 -8.539749 -34.277660 4.163655 0.000000 0.000000 0.000000 14.708166 -8.951438 -4.581802 59.878020 -2.114489 -9.187978 12.175562 32.595115 5.575010 0.000000 0.000000 0.000000 
0.000045 0.944303 0.000048 -1.253592 -1.988532 3.991762 2.986110 0.046148 1.492223 -0.597499 0.187384 -4.177284 2.708766 7.584741 6.634104 0.000000 0.000000 0.000000 -2.383027 0.224243 -1.754095 2.084036 -0.269043 -2.870826 -0.825886 -5.446903 7.896194 0.000000 0.000000 0.000000 5.689811 -0.062162 -0.592220 -5.553943 1.874729 -25.078952 -1.165309 5.279230 28.890281 9.571537 -3.687042 -23.937919 0.000000 0.000000 0.000000 -7.514966 -2.054101 0.160566 -53.678463 -0.058495 -8.818644 -8.247879 -34.212677 4.090477 0.000000 0.000000 0.000000 14.464689 -8.722727 -4.480804 59.843366 -2.046136 -9.150392 11.735887 32.309513 5.356626 0.000000 0.000000 0.000000 
-0.000092 0.944448 -0.000079 -1.223749 -2.054480 3.808343 3.015130 0.069542 1.828996 -0.695217 0.204186 -4.497418 2.791363 7.831138 7.046391 0.000000 0.000000 0.000000 -2.397611 0.208304 -1.556516 1.923292 -0.256723 -2.860541 -0.873411 -5.578379 7.970461 0.000000 0.000000 0.000000 5.503409 -0.076780 -0.364682 -5.387799 1.843536 -24.759805 -1.266756 5.344901 28.509767 9.851149 -3.852568 -23.891279 0.000000 0.000000 0.000000 -7.742205 -2.196371 0.193863 -53.731096 0.149040 -8.883099 -8.382929 -34.394933 4.146877 0.000000 0.000000 0.000000 14.806366 -8.565609 -4.432386 59.713168 -1.877863 -9.036467 11.451088 32.229311 5.254014 0.000000 0.000000 0.000000 
-0.000179 0.944454 -0.000288 -1.237711 -2.049830 3.657047 2.972111 0.074902 1.872198 -0.557167 0.188684 -4.316615 2.825711 7.850373 6.864295 0.000000 0.000000 0.000000 -2.240310 0.190709 -1.392243 1.720275 -0.238712 -2.732465 -0.950680 -5.705690 7.877891 0.000000 0.000000 0.000000 5.385082 -0.092575 -0.136752 -5.349122 1.835685 -24.737088 -1.285258 5.453700 28.654882 10.047153 -3.925969 -24.103524 0.000000 0.000000 0.000000 -8.025443 -2.224679 0.173409 -53.396290 0.217785 -8.873984 -8.801203 -34.920534 4.335802 0.000000 0.000000 0.000000 15.271241 -8.551393 -4.444054 59.567370 -1.626885 -8.938210 11.124342 32.245213 5.184587 0.000000 0.000000 0.000000 
-0.000185 0.944468 -0.000607 -1.261641 -2.113741 3.615591 3.012503 0.081011 1.971441 -0.626067 0.197366 -4.433284 2.820378 7.850634 6.920976 0.000000 0.000000 0.000000 -2.273403 0.174113 -1.172982 1.705142 -0.244782 -3.043679 -0.972054 -5.787680 7.969154 0.000000 0.000000 0.000000 5.384254 -0.093379 -0.118074 -5.471680 1.869599 -24.467091 -1.246249 5.700991 28.556596 10.245832 -4.003991 -24.148956 0.000000 0.000000 0.000000 -7.988558 -2.490030 0.264079 -53.400110 0.141622 -8.843382 -8.994535 -35.193620 4.410729 0.000000 0.000000 0.000000 15.534783 -8.514521 -4.412823 59.584715 -1.614572 -8.931495 10.945196 32.373049 5.177574 0.000000 0.000000 0.000000 
-0.000134 0.944590 -0.001056 -1.256837 -2.022799 3.426303 3.094272 0.089164 2.124122 -0.743955 0.203465 -4.346442 2.791554 7.784883 6.836116 0.000000 0.000000 0.000000 -2.310571 0.161728 -1.020806 1.585271 -0.237258 -3.072441 -1.159550 -6.173314 7.989092 0.000000 0.000000 0.000000 5.278274 -0.108097 0.105675 -5.550328 1.890281 -24.396699 -1.201762 5.876846 28.706057 10.472223 -4.059186 -24.439532 0.000000 0.000000 0.000000 -8.028558 -2.616271 0.289083 -53.177427 0.084038 -8.805891 -9.640403 -35.830818 4.680573 0.000000 0.000000 0.000000 15.819023 -8.376790 -4.313751 59.489242 -1.414855 -8.853423 10.757784 32.432003 5.161537 0.000000 0.000000 0.000000 
0.000020 0.944639 -0.001690 -1.225932 -2.102920 3.328489 3.183570 0.089284 2.150583 -0.906379 0.216131 -4.360508 2.724752 7.672615 6.889029 0.000000 0.000000 0.000000 -2.398141 0.144858 -0.777268 1.579085 -0.244621 -3.397222 -1.179280 -6.273673 8.143778 0.000000 0.000000 0.000000 5.259274 -0.118831 0.252238 -5.659680 1.918341 -24.294876 -1.190705 6.116777 28.746659 10.704810 -4.134600 -24.652053 0.000000 0.000000 0.000000 -7.900751 -2.743731 0.332947 -53.047108 0.042106 -8.781461 -10.389520 -36.362182 4.981081 0.000000 0.000000 0.000000 16.042599 -8.309125 -4.259715 59.403421 -1.346152 -8.823257 10.842923 32.488633 5.213656 0.000000 0.000000 0.000000 
0.000211 0.944739 -0.002422 -1.194798 -2.170237 3.274693 3.262533 0.085047 2.110898 -1.011045 0.221461 -4.259435 2.563367 7.394859 6.960725 0.000000 0.000000 0.000000 -2.487805 0.132334 -0.581768 1.639466 -0.251474 -3.511902 -1.222703 -6.401176 8.238416 0.000000 0.000000 0.000000 5.219555 -0.127999 0.377722 -5.816582 1.953199 -24.378114 -0.998128 6.368453 29.097963 11.075595 -4.256881 -25.109230 0.000000 0.000000 0.000000 -7.729709 -2.840653 0.371164 -52.864078 -0.037632 -8.763312 -11.294501 -36.895863 5.347242 0.000000 0.000000 0.000000 16.046303 -8.227771 -4.165658 59.509230 -1.276674 -8.838892 10.857001 32.604048 5.270655 0.000000 0.000000 0.000000 
0.000468 0.944758 -0.003116 -1.206099 -2.415102 3.257828 3.233711 0.083761 2.045099 -1.016014 0.220067 -4.175575 2.484944 7.186626 6.761317 0.000000 0.000000 0.000000 -2.502435 0.126554 -0.487828 1.602316 -0.252287 -3.689847 -1.243240 -6.476609 8.268902 0.000000 0.000000 0.000000 5.264921 -0.131861 0.418297 -5.953161 1.984779 -24.358766 -0.811588 6.664059 29.398246 11.366774 -4.349483 -25.503631 0.000000 0.000000 0.000000 -7.536328 -2.950827 0.424981 -52.744553 -0.129986 -8.745067 -11.941058 -37.181443 5.603621 0.000000 0.000000 0.000000 16.207201 -8.096920 -4.075506 59.509559 -1.042128 -8.766273 10.906838 32.635670 5.310800 0.000000 0.000000 0.000000 
